<?xml version="1.0" encoding="UTF-8" standalone="no"?>
<svg
   xmlns:dc="http://purl.org/dc/elements/1.1/"
   xmlns:cc="http://creativecommons.org/ns#"
   xmlns:rdf="http://www.w3.org/1999/02/22-rdf-syntax-ns#"
   xmlns:svg="http://www.w3.org/2000/svg"
   xmlns="http://www.w3.org/2000/svg"
   xmlns:sodipodi="http://sodipodi.sourceforge.net/DTD/sodipodi-0.dtd"
   xmlns:inkscape="http://www.inkscape.org/namespaces/inkscape"
   width="40.4142cm"
   height="21.7117cm"
   viewBox="-376.787 42.0287 404.142 217.117"
   version="1.1"
   id="svg2"
   inkscape:version="0.91 r13725"
   sodipodi:docname="ougdvsgyhbpa pohja.svg">
  <metadata
     id="metadata14">
    <rdf:RDF>
      <cc:Work
         rdf:about="">
        <dc:format>image/svg+xml</dc:format>
        <dc:type
           rdf:resource="http://purl.org/dc/dcmitype/StillImage" />
        <dc:title>Untitled</dc:title>
      </cc:Work>
    </rdf:RDF>
  </metadata>
  <defs
     id="defs12" />
  <sodipodi:namedview
     pagecolor="#ffffff"
     bordercolor="#666666"
     borderopacity="1"
     objecttolerance="10"
     gridtolerance="10"
     guidetolerance="10"
     inkscape:pageopacity="0"
     inkscape:pageshadow="2"
     inkscape:window-width="2560"
     inkscape:window-height="1378"
     id="namedview10"
     showgrid="false"
     inkscape:zoom="1.137692"
     inkscape:cx="206.72132"
     inkscape:cy="378.68756"
     inkscape:window-x="-8"
     inkscape:window-y="-8"
     inkscape:window-maximized="1"
     inkscape:current-layer="svg2" />
  <title
     id="title4">Untitled</title>
  <desc
     id="desc6"> made with 123D Design </desc>
  <path
     d="m -304.17372,256.1678 2.01528,0.27658 0.0113,0.002 0.0136,9.9e-4 2.06793,0.17968 2.1549,0.0514 0.0149,0 1.12039,-0.0402 0.007,0 1.15469,-0.096 0.007,-9.6e-4 1.19132,-0.16008 0.007,-0.001 1.23251,-0.23195 0.007,-0.002 1.2737,-0.31254 0.0101,-0.002 1.31608,-0.40077 0.007,-0.002 1.35841,-0.49438 0.01,-0.003 1.39728,-0.58912 0.01,-0.004 1.43505,-0.68822 0.01,-0.004 1.46828,-0.78732 0.0113,-0.004 1.49569,-0.88533 0.0113,-0.005 1.51979,-0.98226 0.0113,-0.005 1.53579,-1.07484 0.0149,-0.0113 1.54608,-1.16412 0.0148,-0.0122 1.54951,-1.25013 1.54723,-1.32965 0.0149,-0.0121 1.53694,-1.4037 0.0139,-0.0133 1.51978,-1.47226 0.0137,-0.0141 1.49688,-1.53327 1.46599,-1.5899 0.0137,-0.0152 2.82208,-3.32573 0.0139,-0.0155 0.0127,-0.0164 2.64585,-3.48363 0.0115,-0.0164 2.44903,-3.6078 0.0113,-0.0164 0.0113,-0.0174 2.23961,-3.70472 0.0112,-0.0172 2.03129,-3.78202 0.01,-0.0174 0.01,-0.0173 1.83218,-3.84517 0.007,-0.0174 1.6445,-3.89854 0.007,-0.0185 1.47631,-3.94644 0.0112,-0.0294 1.32636,-3.99326 0.0113,-0.0306 1.19362,-4.04118 0.007,-0.0304 1.07801,-4.09238 0.007,-0.0303 0.97158,-4.14575 0.006,-0.0303 0.87318,-4.20131 0.004,-0.0315 0.7782,-4.25792 0.004,-0.0315 0.68436,-4.31344 0.003,-0.0326 0.58938,-4.36461 0.49554,-4.40927 0.003,-0.0315 0.39936,-4.43865 0.002,-0.0327 0.30325,-4.44845 0.002,-0.0327 0.21059,-4.43213 9e-4,-0.0326 0.12245,-4.38206 9.3e-4,-0.0316 0.0422,-4.29166 0,-0.0304 -0.0264,-4.15663 0,-0.0303 -0.086,-3.98132 -9.1e-4,-0.0141 -0.13505,-3.77225 0,-0.0141 -9.3e-4,-0.0217 -0.17623,-3.5381 -9.2e-4,-0.0207 -0.21172,-3.29635 -9.2e-4,-0.0184 -0.24601,-3.06332 -0.002,-0.0173 -0.28492,-2.86619 -9.3e-4,-0.0163 -0.33417,-2.73988 -0.002,-0.0164 -0.40055,-2.71809 -0.002,-0.0163 -0.48979,-2.8259 -0.002,-0.0173 -0.002,-0.007 -0.28609,-1.49407 -0.002,-0.007 -0.32041,-1.56811 -0.002,-0.008 -0.35823,-1.65634 -0.002,-0.0113 -0.40167,-1.75652 -0.002,-0.0112 -0.44861,-1.86651 -0.003,-0.0122 -0.50243,-1.98191 -0.003,-0.0122 -0.56191,-2.09955 -0.003,-0.0133 -0.62714,-2.21713 -0.003,-0.0142 -0.69921,-2.329319 -0.003,-0.01417 -0.003,-0.01417 -0.77592,-2.434641 -0.004,-0.01517 -0.85945,-2.528402 -0.004,-0.01559 -0.9476,-2.609427 -0.006,-0.01604 -1.04255,-2.67518 -0.006,-0.01638 -1.14208,-2.723857 -0.006,-0.01666 -1.24625,-2.754467 -0.01,-0.01851 -1.35269,-2.765465 -0.01,-0.01851 -1.46254,-2.75653 -0.0112,-0.01841 -1.57242,-2.726912 -0.0115,-0.01819 -1.68459,-2.676926 -0.0114,-0.01774 -1.79442,-2.606582 -0.0126,-0.01719 -1.90314,-2.516738 -0.0127,-0.01658 -2.00729,-2.408496 -0.0137,-0.0159 -2.10457,-2.283264 -0.0137,-0.01493 -2.19498,-2.142895 -0.0149,-0.01395 -2.27622,-1.989129 -0.0162,-0.01285 -2.34603,-1.824147 -0.0159,-0.01176 -2.4021,-1.650676 -0.0174,-0.01058 -2.4433,-1.472517 -0.0159,-0.0095 -2.46505,-1.293598 -0.0159,-0.0082 -2.46389,-1.117617 -0.0159,-0.0072 -2.44101,-0.94654 -0.0161,-0.0056 -2.39977,-0.781451 -0.0159,-0.0045 -2.34369,-0.62235 -0.0149,-0.0036 -2.27622,-0.469133 -0.0149,-0.0027 -2.20296,-0.320813 -0.0149,-0.0015 -2.12518,-0.177178 -0.0149,-7.61e-4 -2.04848,-0.03724 -0.0138,1.07e-4 -1.97639,0.09921 -0.0136,10e-4 -1.90772,0.232169 -0.0127,0.0016 -1.84704,0.362083 -0.0125,0.0028 -1.79327,0.488843 -0.0127,0.0035 -1.74863,0.612988 -0.0114,0.0043 -1.71319,0.734298 -0.0114,0.005 -1.68686,0.853105 -0.0115,0.0058 -1.6674,0.96908 -0.0115,0.0069 -1.65828,1.082447 -0.0112,0.0078 -1.65256,1.192868 -0.0138,0.0101 -1.65136,1.300241 -0.0127,0.01103 -1.6525,1.404346 -0.0137,0.01209 -1.6525,1.505187 -1.65253,1.602213 -0.0137,0.01306 -1.64798,1.69565 -0.0138,0.01395 -1.64218,1.785161 -0.0128,0.01482 -1.62964,1.870647 -0.0126,0.01555 -1.6113,1.952103 -0.0127,0.01626 -1.5861,2.029202 -1.55642,2.101948 -0.0113,0.01698 -1.51745,2.170115 -0.0127,0.01765 -1.47283,2.233823 -0.0115,0.01819 -1.4202,2.292955 -0.0114,0.01873 -1.3641,2.347292 -0.0113,0.01928 -1.30005,2.396834 -1.23368,2.441717 -0.0113,0.01951 -1.16269,2.481675 -0.01,0.02008 -1.08831,2.516742 -0.007,0.02044 -1.01507,2.547096 -0.01,0.02597 -0.94185,2.572487 -0.87204,2.592838 -0.01,0.02614 -1.55294,5.228171 -0.007,0.026 -0.006,0.0272 -1.33208,5.25541 -0.006,0.0273 -1.14557,5.25323 -0.004,0.0259 -0.98306,5.22601 -0.003,0.0273 -0.003,0.0251 -0.8377,5.17701 -0.003,0.0251 -0.7038,5.10623 -0.003,0.0259 -0.57793,5.01802 -0.002,0.025 -0.002,0.025 -0.45546,4.91132 -0.002,0.024 -0.33532,4.78603 -9.2e-4,0.0241 -0.21745,4.63795 -9.3e-4,0.0229 0,0.0229 -0.1031,4.46591 0,0.0217 0.004,4.26554 9.2e-4,0.0207 0.0415,2.04729 9.2e-4,0.0208 0.0654,1.98521 0.0893,1.91772 0,0.0195 0.10984,1.848 9.3e-4,0.0184 0.12818,1.77503 0.14416,1.69991 9.2e-4,0.0173 0.16023,1.62367 0.002,0.0152 0.17164,1.54745 0.18426,1.47229 9.3e-4,0.0152 0.19223,1.40044 9.1e-4,0.0133 0.39941,2.60376 0.002,0.0133 0.40626,2.39685 0.002,0.0122 0.002,0.0121 0.40285,2.28467 0.41199,2.28906 0.003,0.0229 0.45779,2.4121 0.002,0.0121 0.25982,1.28828 0.003,0.0133 0.2907,1.36013 9.2e-4,0.007 0.32728,1.44072 0.002,0.009 0.36849,1.53001 0.002,0.0111 0.41543,1.62257 0.003,0.0122 0.4669,1.71946 0.003,0.0122 0.52069,1.81314 0.003,0.0133 0.57792,1.90352 0.003,0.0133 0.63397,1.98628 0.003,0.0141 0.69124,2.06035 0.003,0.0141 0.74614,2.1246 0.004,0.0142 0.7999,2.1747 0.0115,0.0295 1.75435,4.44305 0.0127,0.0306 1.93523,4.46917 0.0137,0.0294 2.08166,4.37224 0.0115,0.0229 1.08603,2.11155 1.10777,2.04508 0.0114,0.0218 1.12609,1.9667 1.13868,1.87848 0.0115,0.0195 1.14668,1.78155 0.004,0.009 1.15011,1.68031 0.004,0.007 0.006,0.007 1.14786,1.57577 0.006,0.006 1.14326,1.47122 0.006,0.006 1.13755,1.36885 0.004,0.006 1.12951,1.27189 0.0115,0.0133 1.12033,1.18045 1.11126,1.09662 0.0113,0.0122 1.1021,1.02036 0.0127,0.0112 1.09405,0.95398 0.0115,0.008 2.16865,1.74237 0.0115,0.007 2.15033,1.57579 0.0115,0.007 2.1389,1.45707 0.0113,0.006 2.12971,1.36013 0.0115,0.005 0.0112,0.006 2.11714,1.25559 0.0115,0.005 2.09541,1.13034 0.0113,0.004 2.06906,0.97678 0.0114,0.004 2.03819,0.80584 0.0113,0.004 0.0115,0.003 2.00956,0.63705 0.0114,0.002 1.99124,0.49004 0.0112,0.002 1.99128,0.37242 z"
     id="path8"
     inkscape:connector-curvature="0"
     style="fill:none;stroke:#0000ff;stroke-width:0.01999999;stroke-miterlimit:4;stroke-dasharray:none"
     sodipodi:nodetypes="ccccccccccccccccccccccccccccccccccccccccccccccccccccccccccccccccccccccccccccccccccccccccccccccccccccccccccccccccccccccccccccccccccccccccccccccccccccccccccccccccccccccccccccccccccccccccccccccccccccccccccccccccccccccccccccccccccccccccccccccccccccccccccccccccccccccccccccccccccccccccccccccccccccccccccccccccccccccccccccccccccccccccccccccccccccccccccccccccccccccccccccccccccccccccccccc" />
  <ellipse
     style="fill:none;fill-opacity:1;stroke:#000000;stroke-width:0.02;stroke-linecap:round;stroke-linejoin:round;stroke-miterlimit:4;stroke-dasharray:none;stroke-opacity:1"
     id="path4154"
     cx="-254.17665"
     cy="146.89865"
     rx="2.7188375"
     ry="2.6311328" />
  <ellipse
     style="fill:none;fill-opacity:1;stroke:#000000;stroke-width:0.02;stroke-linecap:round;stroke-linejoin:round;stroke-miterlimit:4;stroke-dasharray:none;stroke-opacity:1"
     id="path4156"
     cx="-347.19586"
     cy="147.67552"
     rx="2.8065419"
     ry="2.5434284" />
</svg>
