<?xml version="1.0" encoding="UTF-8" standalone="no"?>
<svg
   xmlns:dc="http://purl.org/dc/elements/1.1/"
   xmlns:cc="http://creativecommons.org/ns#"
   xmlns:rdf="http://www.w3.org/1999/02/22-rdf-syntax-ns#"
   xmlns:svg="http://www.w3.org/2000/svg"
   xmlns="http://www.w3.org/2000/svg"
   xmlns:sodipodi="http://sodipodi.sourceforge.net/DTD/sodipodi-0.dtd"
   xmlns:inkscape="http://www.inkscape.org/namespaces/inkscape"
   width="16.5175cm"
   height="16.5178cm"
   viewBox="-240.77 -54.2351 165.175 165.178"
   version="1.1"
   id="svg2"
   inkscape:version="0.91 r13725"
   sodipodi:docname="UFO servo teline.svg">
  <metadata
     id="metadata14">
    <rdf:RDF>
      <cc:Work
         rdf:about="">
        <dc:format>image/svg+xml</dc:format>
        <dc:type
           rdf:resource="http://purl.org/dc/dcmitype/StillImage" />
        <dc:title>UFO servo teline.123dx</dc:title>
      </cc:Work>
    </rdf:RDF>
  </metadata>
  <defs
     id="defs12" />
  <sodipodi:namedview
     pagecolor="#ffffff"
     bordercolor="#666666"
     borderopacity="1"
     objecttolerance="10"
     gridtolerance="10"
     guidetolerance="10"
     inkscape:pageopacity="0"
     inkscape:pageshadow="2"
     inkscape:window-width="2560"
     inkscape:window-height="1378"
     id="namedview10"
     showgrid="false"
     inkscape:zoom="1.6129133"
     inkscape:cx="291.42038"
     inkscape:cy="347.50747"
     inkscape:window-x="-8"
     inkscape:window-y="-8"
     inkscape:window-maximized="1"
     inkscape:current-layer="svg2" />
  <title
     id="title4">UFO servo teline.123dx</title>
  <desc
     id="desc6"> made with 123D Design </desc>
  <path
     d="m -166.05302,33.749802 -0.1,0.1424 0,4e-4 -0.073,0.1576 -0.001,4e-4 -0.045,0.168 0,4e-4 -0.015,0.1732 0,4e-4 0.015,0.1732 0.001,5e-4 0.045,0.1679 0,4e-4 0.073,0.1576 0,4e-4 0.1,0.1424 0.001,3e-4 0.122,0.1229 0.001,3e-4 0.142,0.0997 0.001,2e-4 0.157,0.0735 0.001,1e-4 0.168,0.045 0,0 0.173,0.0152 0.001,0 0.173,-0.0152 0,-10e-5 0.168,-0.045 0.001,-2e-4 0.157,-0.0735 0.001,-2e-4 0.142,-0.0998 0,-3e-4 0.123,-0.1229 0.001,-4e-4 0.099,-0.1424 0,-4e-4 0.074,-0.1576 0,-4e-4 0.045,-0.168 0,-4e-4 0.015,-0.1732 0,-4e-4 -0.015,-0.1732 0,-5e-4 -0.045,-0.1679 0,-4e-4 -0.074,-0.1576 0,-4e-4 -0.1,-0.1424 0,-3e-4 -0.123,-0.1229 0,-3e-4 -0.143,-0.0997 0,-2e-4 -0.158,-0.0735 0,-1e-4 -0.168,-0.045 -0.001,0 -0.173,-0.0152 0,0 -0.173,0.0152 -0.001,1e-4 -0.168,0.045 0,2e-4 -0.158,0.0735 0,2e-4 -0.143,0.0998 0,3e-4 -0.123,0.1229 z m 7.252,-25.4743996 -0.032,0 -12.968,0 0,0.0625 0,24.9374996 0.033,0 12.967,0 0,-0.0625 z m -6.144,-2.023 -0.168,-0.045 -0.001,0 -0.173,-0.0152 0,0 -0.173,0.0152 -0.001,10e-5 -0.168,0.045 0,2e-4 -0.158,0.0735 0,2e-4 -0.143,0.0998 0,3e-4 -0.123,0.1229 0,4e-4 -0.1,0.1424 0,4e-4 -0.073,0.1576 -0.001,4e-4 -0.045,0.168 0,4e-4 -0.015,0.1732 0,4e-4 0.015,0.1733 0.001,4e-4 0.045,0.1679 0,4e-4 0.073,0.1576 0,4e-4 0.1,0.1424 0.001,3e-4 0.122,0.1229 0.001,3e-4 0.142,0.0997 0.001,2e-4 0.157,0.0735 0.001,10e-5 0.168,0.045 0,0 0.173,0.0152 0.001,0 0.173,-0.0152 0,-10e-5 0.168,-0.045 0.001,-2e-4 0.157,-0.0735 0.001,-2e-4 0.142,-0.0998 0,-3e-4 0.123,-0.1229 0.001,-4e-4 0.099,-0.1424 0,-4e-4 0.074,-0.1576 0,-4e-4 0.045,-0.1679 0,-5e-4 0.015,-0.1732 0,-4e-4 -0.015,-0.1732 0,-5e-4 -0.045,-0.1679 0,-4e-4 -0.074,-0.1576 0,-4e-4 -0.1,-0.1424 0,-3e-4 -0.123,-0.1229 0,-3e-4 -0.143,-0.0997 0,-2e-4 -0.158,-0.0735 z m 11.246,16.5229996 -0.553,0 -0.184,0 -0.093,0 -0.272,0 0,0.0362 0,14.4638 -0.021,0 -8.479,0 0,0.2456 0,0.084 0,0.1679 0,0.5038 0,57.6023 -0.003,0 -1.33,0.028 -1.33,0.004 -0.004,0 -1.33,-0.02 -0.003,0 0,-57.6145 0,-0.5036 0,-0.1679 0,-0.084 0,-0.2456 -0.021,0 -8.479,0 0,-0.0363 0,-14.4637 -0.274,0 -0.093,0 -0.186,0 -0.556,0 -63.678,0 0,-0.0034 -0.023,-1.3299 0.001,-1.3302 0,-0.0033 0.025,-1.3299 0,-0.0033 63.675,0 0.556,0 0.186,0 0.093,0 0.274,0 0,-0.0363 0,-14.4636996 0.021,0 8.479,0 0,-0.2452 0,-0.0838 0,-0.1676 0,-0.5027 0,-57.5075004 0.003,0 1.33,-0.0196 1.331,0.0041 0.003,0 1.33,0.0277 0.003,10e-5 0,57.4951004 0,0.5028 0,0.1676 0,0.0838 0,0.2452 0.021,0 8.479,0 0,0.0362 0,14.4637996 0.272,0 0.093,0 0.184,0 0.553,0 63.221599,0 1e-4,0.0033 0.0246,1.3299 0,0.0033 9e-4,1.3302 -0.0226,1.3299 -10e-5,0.0034 z"
     id="path8"
     style="fill:none;stroke:#000000;stroke-width:0.02;stroke-miterlimit:4;stroke-dasharray:none;stroke-opacity:1"
     inkscape:connector-curvature="0" />
</svg>
