<?xml version="1.0" encoding="UTF-8" standalone="no"?>
<!-- Created with Inkscape (http://www.inkscape.org/) -->

<svg
   xmlns:dc="http://purl.org/dc/elements/1.1/"
   xmlns:cc="http://creativecommons.org/ns#"
   xmlns:rdf="http://www.w3.org/1999/02/22-rdf-syntax-ns#"
   xmlns:svg="http://www.w3.org/2000/svg"
   xmlns="http://www.w3.org/2000/svg"
   xmlns:sodipodi="http://sodipodi.sourceforge.net/DTD/sodipodi-0.dtd"
   xmlns:inkscape="http://www.inkscape.org/namespaces/inkscape"
   width="210mm"
   height="297mm"
   viewBox="0 0 744.09448819 1052.3622047"
   id="svg2"
   version="1.1"
   inkscape:version="0.91 r13725"
   sodipodi:docname="UFO vapaa rengas+teline.svg">
  <defs
     id="defs4">
    <pattern
       y="0"
       x="0"
       height="6"
       width="6"
       patternUnits="userSpaceOnUse"
       id="EMFhbasepattern" />
    <pattern
       y="0"
       x="0"
       height="6"
       width="6"
       patternUnits="userSpaceOnUse"
       id="EMFhbasepattern-2" />
    <pattern
       y="0"
       x="0"
       height="6"
       width="6"
       patternUnits="userSpaceOnUse"
       id="EMFhbasepattern-4" />
  </defs>
  <sodipodi:namedview
     id="base"
     pagecolor="#ffffff"
     bordercolor="#666666"
     borderopacity="1.0"
     inkscape:pageopacity="0.0"
     inkscape:pageshadow="2"
     inkscape:zoom="7.919596"
     inkscape:cx="86.450923"
     inkscape:cy="990.63837"
     inkscape:document-units="mm"
     inkscape:current-layer="layer1"
     showgrid="false"
     inkscape:window-width="2560"
     inkscape:window-height="1378"
     inkscape:window-x="-8"
     inkscape:window-y="-8"
     inkscape:window-maximized="1" />
  <metadata
     id="metadata7">
    <rdf:RDF>
      <cc:Work
         rdf:about="">
        <dc:format>image/svg+xml</dc:format>
        <dc:type
           rdf:resource="http://purl.org/dc/dcmitype/StillImage" />
        <dc:title></dc:title>
      </cc:Work>
    </rdf:RDF>
  </metadata>
  <g
     inkscape:label="Layer 1"
     inkscape:groupmode="layer"
     id="layer1">
    <path
       inkscape:connector-curvature="0"
       id="path8098"
       d="M 26.039691,101.76538 25.814756,101.61544 20.716228,98.016779 20.491399,97.866834 15.917717,93.668043 15.692782,93.443108 11.64395,88.71947 11.419015,88.569525 7.970051,83.321141 7.8201061,83.171196 4.9709574,77.547818 4.8210125,77.322883 2.646648,71.474673 2.571658,71.249738 1.1470819,65.176489 l -0.07499,-0.224934 -0.7497778,-6.223159 -0.07499,-0.224934 0,-6.298184 0,-0.224935 0.7497779,-6.223104 0.07499,-0.224935 1.4245761,-6.073249 0.07499,-0.299925 2.1743644,-5.848215 0.07499,-0.224935 2.8491593,-5.548403 0.149945,-0.224934 3.5239432,-5.173509 0.07499,-0.224934 4.123809,-4.723535 0.149944,-0.224936 4.648662,-4.19879 0.149944,-0.149945 5.098429,-3.673899 0.224936,-0.149945 5.473419,-2.999115 0.224935,-0.149945 5.773235,-2.324309 0.224934,-0.07499 6.073248,-1.649515 0.224936,-0.07499 6.148125,-0.89972297 0.299925,-0.07499 6.223204,-0.149945 0.224935,-0.07499 6.223105,0.599822 0.299925,0 6.073248,1.27462697 0.299925,0.07499 5.92319,2.024399 0.224935,0.07499 5.623378,2.6992 0.224935,0.07499 5.323464,3.373977 0.224934,0.07499 4.798518,3.973852 0.224936,0.149945 4.348743,4.498703 0.149944,0.149944 3.8236,5.023454 0.14994,0.149944 3.22407,5.398443 0.075,0.224936 2.54926,5.698256 0.075,0.224935 1.87447,5.998272 0.075,0.224934 1.0497,6.148126 0.075,0.299925 0.3749,6.223204 0,0.224934 -0.3749,6.298085 0,0.224935 -1.12467,6.148228 0,0.224935 -1.87447,5.998269 -0.075,0.224935 -2.47428,5.773234 -0.14995,0.224935 -3.14909,5.323463 -0.14994,0.224936 -3.748618,5.023453 -0.224935,0.149944 -4.348747,4.498702 -0.149945,0.149946 -4.873494,3.973856 -0.149945,0.149945 -5.323462,3.373729 -0.224936,0.075 -5.623378,2.69922 -0.224936,0.14994 -5.923189,1.94944 -0.224935,0.14994 -6.148228,1.27463 -0.224935,0 -6.223104,0.59983 -0.299925,0 -6.223204,-0.14994 -0.224936,0 -6.223104,-0.97472 -0.224935,0 -6.073189,-1.64952 -0.224936,-0.075 -5.773234,-2.32432 -0.224936,-0.14995 z M 55.1311,65.701286 l -1.799482,-0.149945 -0.07499,0 -1.649523,-0.44987 -0.07499,0 -1.574546,-0.749785 -0.07499,-0.07499 -1.424587,-0.97472 -0.07499,-0.07499 -1.274532,-1.199652 0,-0.07499 -1.049696,-1.424491 0,-0.07499 -0.749785,-1.574546 -0.07499,-0.07499 -0.44987,-1.724502 0,0 -0.149945,-1.799481 0,-0.07499 0.149945,-1.724502 0,-0.07499 0.44987,-1.7245 0,-0.07499 0.749785,-1.574546 0.07499,-0.07499 0.974717,-1.424587 0.07499,-0.07499 1.199552,-1.199553 0.07499,-0.07499 1.42459,-0.974719 0.07499,-0.07499 1.574546,-0.749785 0.07499,0 1.649525,-0.449869 0.07499,0 1.799481,-0.149945 0.07499,0 1.724502,0.149945 0.07499,0 1.724501,0.449869 0,0 1.649526,0.749785 0.07499,0 1.424487,1.049697 0,0 1.274635,1.274532 0.07499,0 0.974719,1.499566 0.07499,0 0.74978,1.649525 0,0 0.449871,1.724502 0,0.07499 0.149945,1.724502 0,0.07499 -0.149945,1.799481 0,0.07499 -0.449871,1.649521 0,0.07499 -0.74978,1.574546 0,0.07499 -1.0497,1.424488 0,0.07499 -1.274631,1.274631 -0.07499,0 -1.424487,1.0497 0,0 -1.649525,0.749781 -0.07499,0.07499 -1.649521,0.449871 -0.07499,0 -1.724501,0.149944 z"
       style="fill:none;stroke:#000000;stroke-width:0.07497782px;stroke-linecap:butt;stroke-linejoin:miter;stroke-miterlimit:4;stroke-dasharray:none;stroke-opacity:1" />
    <path
       inkscape:connector-curvature="0"
       id="path8111"
       d="m 116.12151,5.0856744 -1.41899,2.016442 0,0 -1.04556,2.240486 0,0 -0.67215,2.3898376 0,0 -0.22405,2.389873 0,0.07469 0.22405,2.389868 0,0 0.67215,2.389873 0,0 1.04556,2.240401 0,0 1.41899,2.016454 0,0 1.71768,1.717722 0,0 2.01645,1.418983 0,0 2.2405,1.045571 0,0 2.38983,0.672151 0,0 2.38986,0.149355 17.62521,0 0.0748,0 0,-28.15546364 0,-0.07468 -17.62521,0 -0.0748,0 0,0 -2.38986,0.22405 0,0 -2.38983,0.672146 0,0 -2.2405,1.04556604 0,0 -2.01645,1.418975 0,0 -1.71768,1.7177 z m 0.37341,10.9037216 0,0 -0.14925,-1.867083 0,0 0.14925,-1.792403 0,0 0.4481,-1.792403 0,0 0.82151,-1.6430046 0,0 1.04555,-1.568335 0,0 1.26961,-1.269607 0,0 1.56835,-1.045571 0,0 1.64298,-0.821506 0,0 1.7924,-0.448101 0,0 1.79241,-0.149366 0.0748,0 1.7924,0.149366 0,0 1.7924,0.448101 0,0 1.64305,0.821506 0,0 1.56825,1.045571 0,0 1.26964,1.269607 0,0 1.04556,1.568335 0,0 0.8215,1.6430046 0,0 0.4481,1.792403 0,0 0.14925,1.792403 0,0.07469 -0.14925,1.792402 0,0 -0.4481,1.792403 0,0 -0.8215,1.643037 0,0 -1.04556,1.56825 0,0 -1.26964,1.269621 0,0 -1.56825,1.045567 0,0 -1.64305,0.821517 0,0 -1.7924,0.448101 0,0 -1.86706,0.149355 0,0 -1.79241,-0.149355 0,0 -1.7924,-0.448101 0,0 -1.64301,-0.821517 0,0 -1.56835,-1.045567 0,0 -1.26961,-1.269621 0,0 -1.04556,-1.56825 0,0 -0.8215,-1.643037 0,0 z"
       style="fill:none;stroke:#000000;stroke-width:0.07468291px;stroke-linecap:butt;stroke-linejoin:miter;stroke-miterlimit:4;stroke-dasharray:none;stroke-opacity:1" />
    <path
       inkscape:connector-curvature="0"
       id="path8111-1"
       d="m 116.24766,40.622907 -1.41899,2.016442 0,0 -1.04556,2.240486 0,0 -0.67215,2.389838 0,0 -0.22405,2.389873 0,0.07469 0.22405,2.389868 0,0 0.67215,2.389873 0,0 1.04556,2.240401 0,0 1.41899,2.016454 0,0 1.71768,1.717722 0,0 2.01645,1.418983 0,0 2.2405,1.045571 0,0 2.38982,0.672151 0,0 2.38986,0.149355 17.62521,0 0.0748,0 0,-28.155464 0,-0.07468 -17.62521,0 -0.0748,0 0,0 -2.38986,0.22405 0,0 -2.38982,0.672146 0,0 -2.2405,1.045566 0,0 -2.01645,1.418975 0,0 -1.71768,1.7177 z m 0.37341,10.903722 0,0 -0.14925,-1.867083 0,0 0.14925,-1.792403 0,0 0.4481,-1.792403 0,0 0.82151,-1.643005 0,0 1.04555,-1.568335 0,0 1.26961,-1.269607 0,0 1.56835,-1.045571 0,0 1.64297,-0.821506 0,0 1.7924,-0.448101 0,0 1.79241,-0.149366 0.0748,0 1.7924,0.149366 0,0 1.7924,0.448101 0,0 1.64305,0.821506 0,0 1.56825,1.045571 0,0 1.26964,1.269607 0,0 1.04556,1.568335 0,0 0.8215,1.643005 0,0 0.4481,1.792403 0,0 0.14925,1.792403 0,0.07469 -0.14925,1.792402 0,0 -0.4481,1.792403 0,0 -0.8215,1.643037 0,0 -1.04556,1.56825 0,0 -1.26964,1.269621 0,0 -1.56825,1.045567 0,0 -1.64305,0.821517 0,0 -1.7924,0.448101 0,0 -1.86706,0.149355 0,0 -1.79241,-0.149355 0,0 -1.7924,-0.448101 0,0 -1.643,-0.821517 0,0 -1.56835,-1.045567 0,0 -1.26961,-1.269621 0,0 -1.04556,-1.56825 0,0 -0.8215,-1.643037 0,0 z"
       style="fill:none;stroke:#000000;stroke-width:0.07468291px;stroke-linecap:butt;stroke-linejoin:miter;stroke-miterlimit:4;stroke-dasharray:none;stroke-opacity:1" />
  </g>
</svg>
